# xmcd
#
# Track frame offsets:
#	150
#	7073
#	29143
#	46038
#	63168
#	84916
#	109784
#	134305
#	156180
#	174641
#	204562
#	220473
#
# Disc length: 3146 seconds
#
# Revision: 3
# Processed by: cddbd v1.5.1PL2 Copyright (c) Steve Scherf et al.
# Submitted via: audiograbber 1.83.01
#
DISCID=a40c480c
DTITLE=Corby Yates - Back From Yesterday
DYEAR=2005
DGENRE=Blues
TTITLE0=Dallas
TTITLE1=Back From Yesterday
TTITLE2=Green Eyed Girl
TTITLE3=Are You Not There?
TTITLE4=Back To You
TTITLE5=Salty Pain
TTITLE6=Is This Evil?
TTITLE7=Do You Know?
TTITLE8=I Don't Mind
TTITLE9=The Wrong Song
TTITLE10=The Cure
TTITLE11=Angel
EXTD=YEAR: 2003 ID3G:   0
EXTT0=
EXTT1=
EXTT2=
EXTT3=
EXTT4=
EXTT5=
EXTT6=
EXTT7=
EXTT8=
EXTT9=
EXTT10=
EXTT11=
PLAYORDER=
